<svg version="1.2" xmlns="http://www.w3.org/2000/svg" viewBox="0 0 1527 1547" width="1527" height="1547">
	<title>Telecom_logo_2021-svg</title>
	<style>
		.s0 { fill: #3d01a1 } 
	</style>
	<g id="Capa 2">
		<g id="Layer 1">
			<path id="Layer" class="s0" d="m439.1 74.3c241.8-116.6 545.8-94.1 765.2 61.8 149.5 104.6 254.3 266.4 300.3 442-104.7 0.4-209.3-0.4-314 0.4-38.5-93.6-108-174.9-198.2-221.9-145.3-76.3-330.9-74-472.4 10.6-20.1 12.3-39.3 26.2-57.4 41.4-18 15.3-34.8 32-50.3 49.8-15.5 17.9-29.5 36.9-42.1 57-12.5 20-23.5 41-32.8 62.7q-156 0-311.8 0c13.8-54.4 33.6-107.2 58.9-157.3 25.3-50.1 56.1-97.3 91.7-140.7 35.6-43.5 75.9-82.8 120.1-117.4 44.2-34.6 92.1-64.3 142.8-88.4zm-435.7 675.7h303.8c-6.1 121.7 33.9 246.5 117.6 336.1 24.8 27.1 52.7 51.2 83.1 71.9 30.5 20.6 63.2 37.6 97.5 50.6 34.4 13 70.2 22 106.6 26.7 36.5 4.7 73.3 5.2 109.9 1.4 29.8-3.2 59.2-9.4 87.7-18.5 28.6-9.2 56.1-21.2 82.2-36 26.1-14.8 50.6-32.2 73.1-51.9 22.5-19.8 43-41.8 61-65.8 67.5-88.4 93.8-202 88.9-311.9h308.8c14.5 157.6-22.5 320.4-110.5 452.7-132.1 202.8-367.5 327.6-607.4 339.6-234.3 14.5-473.7-83.2-627.7-261.2-31.6-36.3-59.4-75.6-83.2-117.4-23.8-41.9-43.3-86-58.2-131.7-15-45.7-25.3-92.8-30.9-140.6-5.6-47.8-6.4-96-2.3-144z"/>
		</g>
	</g>
</svg>